PathFileType	4	(X/Y/Z)	C:/Users/opensim2020/Desktop/walking_exp_matlab/subject06_walking12_straigt_03.trc																																																																																																																																														
DataRate	CameraRate	NumFrames	NumMarkers	Units	OrigDataRate	OrigDataStartFrame	OrigNumFrames																																																																																																																																										
100	100	8	48	mm	100	2210	184																																																																																																																																										
Frame#	Time	LFHD			RFHD			LBHD			RBHD			C7			T10			CLAV			STRN			RBAK			LSHO			LUPA			LELB			LFRM			LWRA			LWRB			LFIN			RSHO			RUPA			RELB			RFRM			RWRA			RWRB			RFIN			LASI			RASI			LPSI			RPSI			LTHI			LKNE			LTIB			LANK			LHEE			LTOE			RTHI			RKNE			RTIB			RANK			RHEE			RTOE			*39			*40			*41			*42			*43			*44			*45			*46			*47		
		X1	Y1	Z1	X2	Y2	Z2	X3	Y3	Z3	X4	Y4	Z4	X5	Y5	Z5	X6	Y6	Z6	X7	Y7	Z7	X8	Y8	Z8	X9	Y9	Z9	X10	Y10	Z10	X11	Y11	Z11	X12	Y12	Z12	X13	Y13	Z13	X14	Y14	Z14	X15	Y15	Z15	X16	Y16	Z16	X17	Y17	Z17	X18	Y18	Z18	X19	Y19	Z19	X20	Y20	Z20	X21	Y21	Z21	X22	Y22	Z22	X23	Y23	Z23	X24	Y24	Z24	X25	Y25	Z25	X26	Y26	Z26	X27	Y27	Z27	X28	Y28	Z28	X29	Y29	Z29	X30	Y30	Z30	X31	Y31	Z31	X32	Y32	Z32	X33	Y33	Z33	X34	Y34	Z34	X35	Y35	Z35	X36	Y36	Z36	X37	Y37	Z37	X38	Y38	Z38	X39	Y39	Z39	X40	Y40	Z40	X41	Y41	Z41	X42	Y42	Z42	X43	Y43	Z43	X44	Y44	Z44	X45	Y45	Z45	X46	Y46	Z46	X47	Y47	Z47	X48	Y48	Z48
																																																																																																																																																	
139	1.38	-1077.46838	1645.45117	-572.99866	-947.03204	1629.72668	-559.97089	-1093.98828	1593.79724	-440.22147	-965.58545	1583.00464	-428.3638	-1040.03076	1432.21057	-432.22467	-1035.83435	1103.13281	-395.35242	-1034.25049	1354.53748	-542.81659	-1046.177	1179.20325	-581.57623	-969.79834	1260.1449	-356.22787	-1197.13721	1392.07153	-495.2308	-1280.84961	1200.48413	-537.22211	-1302.37964	1094.62988	-570.80121	-1323.20801	999.13654	-684.32123	-1274.49402	963.29852	-805.27209	-1314.02869	916.21399	-770.48059	-1313.04761	895.02136	-857.854	-874.37225	1383.41309	-488.67014	-795.33313	1194.24463	-412.69348	-786.83331	1071.25403	-399.96564	-773.6897	950.55402	-389.4855	-811.20966	801.56689	-413.65344	-767.95557	814.76489	-364.04379	-770.17188	731.72247	-381.3454	-1145.46948	939.46027	-570.8125	-924.59277	948.09399	-574.11395	-1112.55017	970.96063	-410.72647	-943.2077	970.45642	-420.56628	-1191.77136	631.79456	-461.29007	-1167.65002	469.93369	-426.65771	-1153.45471	243.466	-296.97833	-1101.10608	84.19744	-231.72195	-1055.4082	81.81127	-188.56404	-1101.95813	32.40141	-365.96729	-858.36768	620.11017	-580.89655	-887.09192	503.68759	-625.25336	-888.72144	246.50502	-667.76813	-928.24829	69.46125	-732.77026	-979.61957	39.45001	-709.48651	-915.20343	69.75358	-892.07904	-1027.63843	1683.79407	-468.05399	NaN	NaN	NaN	NaN	NaN	NaN	NaN	NaN	NaN	NaN	NaN	NaN	NaN	NaN	NaN	NaN	NaN	NaN	NaN	NaN	NaN	NaN	NaN	NaN
140	1.39	-1076.67371	1644.54077	-582.49152	-946.24554	1629.0155	-569.62091	-1092.98071	1592.83508	-449.75204	-964.58069	1582.25757	-438.03653	-1038.96716	1431.18408	-441.83344	-1034.75586	1102.0116	-406.14771	-1033.2439	1353.76587	-552.73267	-1045.27075	1178.52112	-592.0697	-968.95648	1258.81238	-366.51816	-1196.17688	1391.20386	-504.95154	-1279.75671	1199.42566	-546.47827	-1301.04761	1093.49121	-579.83051	-1321.85352	998.47296	-693.69092	-1273.07922	963.41107	-814.80347	-1312.52112	916.08862	-780.28204	-1311.6228	895.52582	-867.83813	-873.36383	1382.427	-498.5697	-794.32001	1193.01685	-423.09912	-785.65021	1070.00696	-410.96646	-772.34424	949.28552	-400.6315	-809.68976	800.34576	-425.23691	-766.64349	813.37543	-375.72104	-768.59113	730.45624	-393.24976	-1144.57312	938.54456	-581.41223	-923.20569	947.37244	-585.39459	-1111.28809	969.81628	-421.30188	-942.07629	969.29999	-431.84607	-1190.87964	630.81494	-470.85947	-1167.19641	468.92023	-436.22125	-1153.52856	244.82829	-302.11084	-1102.01172	87.02602	-233.1837	-1056.56372	85.53189	-189.87564	-1102.19922	32.36033	-366.24591	-858.53156	620.21375	-593.37177	-887.1001	504.19974	-637.61639	-889.59741	244.60547	-675.67804	-930.57153	66.33657	-735.94586	-981.44867	37.57502	-711.8266	-916.63568	63.84568	-894.5415	-1026.7605	1682.90271	-477.6572	NaN	NaN	NaN	NaN	NaN	NaN	NaN	NaN	NaN	NaN	NaN	NaN	NaN	NaN	NaN	NaN	NaN	NaN	NaN	NaN	NaN	NaN	NaN	NaN
141	1.4	-1075.99329	1643.65173	-592.10266	-945.50726	1628.39685	-579.44098	-1091.92224	1592.02856	-459.31546	-963.46631	1581.62085	-447.80728	-1037.74158	1430.18018	-451.51096	-1033.42957	1100.92029	-417.07956	-1032.2085	1353.08276	-562.71039	-1044.29834	1178.02832	-602.66437	-967.95618	1257.57996	-376.91638	-1194.99097	1390.33069	-514.53778	-1278.63257	1198.47791	-555.76666	-1299.82007	1092.45007	-588.77234	-1320.36072	997.74188	-702.89856	-1271.64392	963.09265	-823.95239	-1310.98267	915.54993	-789.57458	-1310.23291	895.38098	-877.12103	-872.21869	1381.57886	-508.51743	-793.18542	1191.75977	-433.62076	-784.41449	1068.85583	-422.12933	-771.0097	948.15558	-412.21988	-808.12708	799.22021	-437.19101	-765.08093	812.1413	-387.66916	-766.8327	729.32593	-405.51462	-1143.78052	937.79248	-592.00549	-922.0257	946.82837	-597.20264	-1109.85437	968.80731	-432.09222	-940.63739	968.45624	-443.42047	-1190.05286	629.87415	-480.53394	-1166.76721	467.84219	-446.22543	-1153.53357	246.44836	-307.733	-1102.80164	90.17223	-234.924	-1057.57129	89.72055	-191.49669	-1102.37952	32.25512	-366.53238	-858.70612	620.21802	-605.85114	-887.24597	504.55988	-650.01788	-890.53625	242.73987	-682.97656	-932.07855	63.83328	-737.88	-983.61298	36.36466	-713.02527	-918.42401	57.37849	-896.3725	-1025.94788	1682.18652	-487.37759	NaN	NaN	NaN	NaN	NaN	NaN	NaN	NaN	NaN	NaN	NaN	NaN	NaN	NaN	NaN	NaN	NaN	NaN	NaN	NaN	NaN	NaN	NaN	NaN
142	1.41	-1075.37805	1642.95105	-601.78058	-944.73621	1628.06812	-589.4812	-1090.78296	1591.28931	-468.82315	-962.26801	1581.28174	-457.69733	-1036.31287	1429.30383	-460.92819	-1032.00537	1099.91028	-428.33548	-1031.02209	1352.60229	-572.66345	-1043.24866	1177.75305	-613.3974	-966.71747	1256.27551	-387.30716	-1193.69409	1389.61328	-524.09009	-1277.15466	1197.5509	-564.80426	-1298.46045	1091.51221	-597.52203	-1319.3103	996.72882	-711.76794	-1270.15613	962.21222	-832.69604	-1309.34888	914.54675	-798.30487	-1308.83118	894.57214	-885.79834	-870.94696	1380.86462	-518.50256	-791.86237	1190.82813	-444.54901	-783.09534	1067.78162	-433.54822	-769.56799	947.07275	-424.05859	-806.43768	798.27075	-449.66852	-763.49939	810.9978	-400.14227	-764.97101	728.26892	-418.22079	-1142.99121	937.23413	-601.97437	-921.06421	946.58374	-609.36005	-1108.25464	968.07141	-442.9025	-938.72626	968.10657	-455.12897	-1189.0918	628.98895	-490.61255	-1166.01648	466.70389	-456.88306	-1153.19446	248.46149	-313.30588	-1103.59644	93.82231	-236.99847	-1058.53674	94.5112	-193.64746	-1102.52954	32.1627	-366.92926	-858.93048	620.28064	-618.31183	-888.17291	504.7645	-662.13049	-891.80524	241.44518	-690.17456	-933.22076	63.39464	-741.992	-984.3324	38.78008	-716.63226	-918.78253	49.19223	-900.53845	-1025.13489	1681.66333	-497.12952	NaN	NaN	NaN	NaN	NaN	NaN	NaN	NaN	NaN	NaN	NaN	NaN	NaN	NaN	NaN	NaN	NaN	NaN	NaN	NaN	NaN	NaN	NaN	NaN
143	1.42	-1074.76025	1642.90051	-611.49768	-943.95709	1628.43689	-599.63391	-1089.5896	1591.03418	-478.50684	-961.00592	1581.41736	-467.80469	-1034.85364	1428.98999	-470.52341	-1030.729	1099.12573	-439.55319	-1029.75952	1352.71667	-582.6944	-1042.14148	1177.95691	-623.96045	-965.17059	1255.09473	-397.57278	-1192.45032	1389.26636	-533.57593	-1275.71765	1196.875	-574.0838	-1297.0708	1090.65967	-606.07892	-1317.81128	995.61462	-720.25928	-1268.68506	960.81836	-840.90643	-1307.81458	913.17548	-806.52966	-1307.3988	893.22937	-894.01318	-869.45807	1380.48352	-528.58154	-790.46161	1189.96289	-455.63773	-781.36237	1066.90747	-444.95532	-768.02753	946.12195	-436.26929	-804.79663	797.37659	-462.54807	-761.94977	810.01025	-412.88367	-763.22754	727.37891	-431.56189	-1142.47986	936.84369	-612.78802	-920.31183	946.57813	-621.48108	-1106.62512	967.63922	-453.85919	-936.84833	968.48846	-467.01569	-1188.00098	628.08258	-501.17514	-1164.83557	465.69675	-468.21603	-1152.64941	250.72488	-320.03287	-1104.47791	98.10008	-239.70302	-1059.71936	100.10342	-196.28476	-1102.61621	32.2413	-367.55038	-858.55286	620.97418	-630.42297	-888.5484	505.55292	-673.3363	-890.18512	242.02795	-698.83405	-930.77606	64.68078	-748.66058	-981.57916	40.47218	-720.85199	-918.12726	45.16355	-905.70178	-1024.2782	1681.56116	-506.95618	NaN	NaN	NaN	NaN	NaN	NaN	NaN	NaN	NaN	NaN	NaN	NaN	NaN	NaN	NaN	NaN	NaN	NaN	NaN	NaN	NaN	NaN	NaN	NaN
144	1.43	-1074.05725	1643.53015	-621.25	-943.22797	1629.4613	-609.74152	-1088.28723	1591.47595	-488.23801	-959.65277	1582.26465	-478.03552	-1033.19116	1429.45203	-480.1506	-1029.8468	1098.89612	-450.69263	-1028.38965	1353.39941	-592.53638	-1041.05493	1178.54956	-634.23877	-963.46112	1254.33167	-407.77078	-1191.31592	1389.32324	-542.85107	-1274.27673	1196.5332	-583.35474	-1295.63074	1090.02808	-614.58508	-1316.28931	994.29797	-728.20355	-1267.18103	958.99695	-848.73798	-1306.21045	911.47095	-813.99011	-1305.97327	891.25275	-901.46173	-867.82123	1380.52417	-538.69928	-788.9386	1189.3822	-466.93936	-779.78241	1066.21912	-456.97714	-766.48486	945.33417	-448.90781	-803.21216	796.76569	-475.84122	-760.42114	809.14728	-426.06448	-761.4682	726.78864	-445.28592	-1142.04016	936.7049	-623.59088	-919.87952	947.24878	-633.62524	-1105.34314	967.62897	-464.86816	-935.34143	969.85614	-478.6828	-1186.8988	627.43298	-512.401	-1163.55493	464.89731	-480.39642	-1152.19409	253.58803	-327.41046	-1105.21667	103.10383	-243.16103	-1060.60425	106.50667	-199.7926	-1102.37903	32.23867	-368.23438	-857.24799	622.82758	-642.08051	-886.6283	507.14252	-683.43854	-886.87842	244.17502	-708.92548	-929.59607	64.4703	-753.45935	-979.95441	41.82662	-723.24292	-916.66473	43.39582	-909.13074	-1023.36865	1682.23584	-516.84235	NaN	NaN	NaN	NaN	NaN	NaN	NaN	NaN	NaN	NaN	NaN	NaN	NaN	NaN	NaN	NaN	NaN	NaN	NaN	NaN	NaN	NaN	NaN	NaN
145	1.44	-1073.40125	1644.3689	-631.21753	-942.46729	1630.79688	-620.17847	-1086.97778	1592.50562	-498.09909	-958.27972	1583.71289	-488.28384	-1031.64612	1430.52197	-490.20038	-1029.00122	1099.4032	-461.46848	-1027.06079	1354.52722	-602.34009	-1039.98193	1179.71716	-644.50403	-961.66089	1254.36951	-417.97363	-1190.24194	1389.94971	-552.24963	-1272.59814	1196.46094	-592.06171	-1294.05737	1089.71118	-622.85101	-1314.27185	992.91473	-735.40826	-1265.70593	956.81335	-856.0177	-1304.59058	909.47943	-820.82935	-1304.51196	888.65527	-907.99481	-866.20471	1380.99255	-548.87042	-787.4176	1189.11279	-478.57782	-778.33209	1065.86072	-469.59149	-764.95728	944.88483	-461.95029	-801.56982	796.50806	-489.54028	-758.90857	808.64056	-439.68677	-759.68304	726.54388	-459.59274	-1141.54846	937.09357	-634.59436	-919.50635	948.77478	-645.67865	-1104.49194	967.9306	-476.01865	-934.45984	971.86279	-490.22266	-1185.79956	627.12299	-524.39178	-1162.49561	464.33472	-493.63913	-1151.42822	256.96313	-335.72687	-1105.67981	108.80925	-247.2294	-1061.07458	113.70172	-204.1864	-1102.08374	32.28148	-369.05148	-855.35339	625.55524	-653.47394	-883.89978	509.44284	-693.62909	-884.47626	246.19843	-717.98096	-928.91937	64.84189	-755.02448	-979.11963	42.37421	-724.09326	-915.90515	41.18022	-910.48547	-1022.49188	1683.43457	-526.99933	NaN	NaN	NaN	NaN	NaN	NaN	NaN	NaN	NaN	NaN	NaN	NaN	NaN	NaN	NaN	NaN	NaN	NaN	NaN	NaN	NaN	NaN	NaN	NaN
146	1.45	-1072.69263	1645.36011	-641.31952	-941.71887	1632.22229	-630.65009	-1085.62634	1593.85095	-508.00272	-956.86206	1585.59277	-498.65189	-1030.03784	1432.07166	-500.15976	-1028.32642	1100.52771	-472.03952	-1025.76355	1355.96826	-612.11462	-1038.95508	1181.27197	-654.76196	-959.7702	1255.27856	-428.20026	-1189.04138	1391.17456	-561.9649	-1270.94397	1197.07397	-600.72375	-1292.2876	1089.96777	-630.97931	-1312.46887	991.68372	-742.42468	-1264.18152	954.25494	-862.66644	-1302.78772	907.18347	-826.60309	-1303.05383	885.48767	-913.62012	-864.69421	1381.93774	-559.07819	-785.93872	1189.31384	-490.51102	-776.77789	1065.95898	-482.49945	-763.45636	944.91919	-475.42328	-799.99011	796.78674	-503.78076	-757.17529	808.69525	-453.57275	-757.96118	726.74878	-474.11221	-1140.86292	937.83942	-645.61597	-919.20813	951.2406	-657.42578	-1103.7981	968.50385	-487.20889	-934.05408	974.29022	-501.45468	-1184.74451	627.0816	-537.11963	-1161.72058	464.15054	-507.61166	-1150.83887	261.06219	-344.71313	-1106.13867	115.1383	-252.23389	-1061.40784	121.73872	-209.60744	-1101.66418	32.25311	-369.87506	-852.90417	628.43933	-664.3479	-882.23383	512.55511	-704.78827	-882.8045	247.51385	-724.724	-928.76532	65.42542	-755.06317	-978.59216	42.41074	-723.83527	-916.48389	39.60532	-910.49896	-1021.52722	1684.93359	-537.41162	NaN	NaN	NaN	NaN	NaN	NaN	NaN	NaN	NaN	NaN	NaN	NaN	NaN	NaN	NaN	NaN	NaN	NaN	NaN	NaN	NaN	NaN	NaN	NaN
